<svg xmlns="http://www.w3.org/2000/svg" viewBox="0 0 1672 941" width="1672" height="941" preserveAspectRatio="xMidYMid slice">
  <defs>
    <filter id="glowGreen" x="-50%" y="-50%" width="200%" height="200%">
      <feGaussianBlur stdDeviation="2.2" result="b1"/>
      <feGaussianBlur stdDeviation="5.5" result="b2"/>
      <feMerge>
        <feMergeNode in="b2"/>
        <feMergeNode in="b1"/>
        <feMergeNode in="SourceGraphic"/>
      </feMerge>
    </filter>
    <filter id="glowGold" x="-50%" y="-50%" width="200%" height="200%">
      <feGaussianBlur stdDeviation="2.0" result="b1"/>
      <feGaussianBlur stdDeviation="5.0" result="b2"/>
      <feMerge>
        <feMergeNode in="b2"/>
        <feMergeNode in="b1"/>
        <feMergeNode in="SourceGraphic"/>
      </feMerge>
    </filter>
  </defs>

  <g fill="none" stroke-linecap="round" stroke-linejoin="round">

    <path id="route1"
      d="M 980 0
         C 951 47, 934 86, 949 118
         C 969 159, 1009 171, 1038 206
         C 1075 251, 1078 306, 1052 354
         C 1023 408, 968 449, 901 486
         C 826 528, 739 571, 652 626
         C 564 681, 469 749, 365 836"
      stroke="rgba(255,255,255,0.045)" stroke-width="3"/>

    <path
      d="M 980 0
         C 951 47, 934 86, 949 118
         C 969 159, 1009 171, 1038 206
         C 1075 251, 1078 306, 1052 354
         C 1023 408, 968 449, 901 486
         C 826 528, 739 571, 652 626
         C 564 681, 469 749, 365 836"
      stroke="#ffd46f" stroke-width="4.2"
      stroke-dasharray="34 340" stroke-dashoffset="0"
      filter="url(#glowGold)">
      <animate attributeName="stroke-dashoffset" from="0" to="-748" dur="7.6s" repeatCount="indefinite"/>
    </path>

    <path id="route2"
      d="M 931 4
         C 905 58, 887 97, 900 129
         C 919 172, 954 190, 980 222
         C 1010 259, 1014 305, 990 347
         C 960 397, 913 432, 851 466
         C 778 506, 700 546, 617 596
         C 532 647, 448 706, 354 783"
      stroke="rgba(255,255,255,0.04)" stroke-width="3"/>

    <path
      d="M 931 4
         C 905 58, 887 97, 900 129
         C 919 172, 954 190, 980 222
         C 1010 259, 1014 305, 990 347
         C 960 397, 913 432, 851 466
         C 778 506, 700 546, 617 596
         C 532 647, 448 706, 354 783"
      stroke="#66ffb2" stroke-width="3.8"
      stroke-dasharray="28 300" stroke-dashoffset="-120"
      filter="url(#glowGreen)">
      <animate attributeName="stroke-dashoffset" from="-120" to="-720" dur="8.8s" repeatCount="indefinite"/>
    </path>

    <path id="route3"
      d="M 1637 295
         C 1532 321, 1449 355, 1384 407
         C 1321 458, 1279 528, 1240 602
         C 1200 677, 1160 739, 1099 792
         C 1049 836, 995 868, 935 902"
      stroke="rgba(255,255,255,0.04)" stroke-width="3"/>

    <path
      d="M 1637 295
         C 1532 321, 1449 355, 1384 407
         C 1321 458, 1279 528, 1240 602
         C 1200 677, 1160 739, 1099 792
         C 1049 836, 995 868, 935 902"
      stroke="#69ffb4" stroke-width="3.8"
      stroke-dasharray="30 330" stroke-dashoffset="-60"
      filter="url(#glowGreen)">
      <animate attributeName="stroke-dashoffset" from="-60" to="-660" dur="9.4s" repeatCount="indefinite"/>
    </path>

    <path id="route4"
      d="M 1508 446
         C 1430 462, 1368 496, 1322 548
         C 1278 598, 1250 657, 1223 710
         C 1193 770, 1155 817, 1100 855"
      stroke="rgba(255,255,255,0.035)" stroke-width="3"/>

    <path
      d="M 1508 446
         C 1430 462, 1368 496, 1322 548
         C 1278 598, 1250 657, 1223 710
         C 1193 770, 1155 817, 1100 855"
      stroke="#ffd66f" stroke-width="3.6"
      stroke-dasharray="24 280" stroke-dashoffset="-40"
      filter="url(#glowGold)">
      <animate attributeName="stroke-dashoffset" from="-40" to="-560" dur="10.2s" repeatCount="indefinite"/>
    </path>

  </g>
</svg>
